<svg xmlns="http://www.w3.org/2000/svg" width="119.658" height="88.938" viewBox="0 0 119.658 88.938"><defs><style>.a{fill:#486ec2;opacity:0.179;}.b{fill:#496ec2;font-size:48px;font-family:MaterialIcons-Regular, Material Icons;opacity:0.5;}</style></defs><g transform="translate(-1029.342 -170.062)"><path class="a" d="M76.96,30.277H52.989v8.831a11.354,11.354,0,0,1-22.709,0V19.931l-10.235,6.15a10.071,10.071,0,0,0-4.9,8.642v7.459L2.525,49.469A5.034,5.034,0,0,0,.68,56.36L13.3,78.217a5.048,5.048,0,0,0,6.891,1.845l16.306-9.415H58.036A10.1,10.1,0,0,0,68.129,60.555h2.523A5.041,5.041,0,0,0,75.7,55.509V45.416H76.96a3.776,3.776,0,0,0,3.785-3.785v-7.57A3.776,3.776,0,0,0,76.96,30.277Zm23.292-5.9L87.636,2.521A5.048,5.048,0,0,0,80.745.676L64.438,10.091H48.321a10.169,10.169,0,0,0-5.346,1.53l-5.283,3.3a5.012,5.012,0,0,0-2.366,4.274V39.108a6.308,6.308,0,1,0,12.616,0V25.23H76.96a8.837,8.837,0,0,1,8.831,8.831v4.494L98.407,31.27a5.052,5.052,0,0,0,1.845-6.892Z" transform="translate(1029.343 170.06)"/><text class="b" transform="translate(1101 258)"><tspan x="0" y="0">error</tspan></text></g></svg>