<svg xmlns="http://www.w3.org/2000/svg" width="118" height="50" viewBox="0 0 118 50"><defs><style>.a{fill:#edfced;stroke:rgba(86,194,113,0.4);}.b{fill:#56c271;}.b,.c{font-size:10px;}.b,.e{font-family:MaterialIcons-Regular, Material Icons;}.c,.d{fill:#3c884f;}.c{font-family:Roboto-Medium, Roboto;font-weight:500;letter-spacing:0.01em;}.e{fill:#49c249;font-size:15px;}</style></defs><g transform="translate(0.5 0.5)"><rect class="a" width="117" height="49" rx="8"/><g transform="translate(47.334 11.395)"><text class="b" transform="translate(50.667 8.605)"><tspan x="0" y="0">launch</tspan></text></g><g transform="translate(46.334 15.395)"><text class="c" transform="translate(-0.333 6.605)"><tspan x="0" y="0" xml:space="preserve">Certified  </tspan><tspan x="0" y="14">Free Bias</tspan></text></g><path class="d" d="M16.145,6.353H11.116V8.206a2.382,2.382,0,0,1-4.764,0V4.183L4.2,5.473A2.113,2.113,0,0,0,3.175,7.286V8.851L.529,10.38a1.056,1.056,0,0,0-.387,1.446l2.647,4.586a1.059,1.059,0,0,0,1.446.387l3.421-1.975h4.519a2.119,2.119,0,0,0,2.117-2.117h.529a1.058,1.058,0,0,0,1.059-1.059V9.529h.265a.792.792,0,0,0,.794-.794V7.147A.792.792,0,0,0,16.145,6.353Zm4.887-1.237L18.385.53A1.059,1.059,0,0,0,16.939.143L13.518,2.118H10.137a2.133,2.133,0,0,0-1.122.321l-1.108.691a1.052,1.052,0,0,0-.5.9V8.206a1.323,1.323,0,1,0,2.647,0V5.294h6.088A1.854,1.854,0,0,1,18,7.147V8.09l2.647-1.529a1.06,1.06,0,0,0,.387-1.446Z" transform="translate(14.343 14.06)"/><text class="e" transform="translate(25 38)"><tspan x="0" y="0">verified_user</tspan></text></g></svg>