<svg xmlns="http://www.w3.org/2000/svg" xmlns:xlink="http://www.w3.org/1999/xlink" width="234.787" height="172.171" viewBox="0 0 234.787 172.171"><defs><style>.a{fill:#b4a6ea;}.b{fill:#493796;}.c{fill:#694ed6;}.d{fill:#8f7be1;}.e{fill:#ffb27d;}.f{fill:#e2915a;}.g{fill:#34276e;}.h{fill:#fff;}.i{fill:url(#c);}.j{fill:#db6516;}.k{fill:#9db0f4;}.l{fill:#233862;}.m{fill:#ffc39c;}.n{fill:#ed975d;}.o{fill:url(#d);}.p{fill:#6bb7bf;}.q{fill:#86d1cd;}.r{fill:#5685d8;}.s{fill:#739af0;}.t{fill:#f99746;}.u{filter:url(#a);}</style><filter id="a" x="0" y="0.118" width="234.787" height="172.053" filterUnits="userSpaceOnUse"><feOffset dy="3" input="SourceAlpha"/><feGaussianBlur stdDeviation="3" result="b"/><feFlood flood-opacity="0.161"/><feComposite operator="in" in2="b"/><feComposite in="SourceGraphic"/></filter><linearGradient id="c" x1="0.5" x2="0.5" y2="1" gradientUnits="objectBoundingBox"><stop offset="0" stop-color="#e42d1a"/><stop offset="0.1" stop-color="#e95247"/><stop offset="0.3" stop-color="#c137a2"/><stop offset="0.659" stop-color="#9243be"/><stop offset="1" stop-color="#694ed6"/><stop offset="1" stop-color="#fff"/><stop offset="1" stop-color="#d882c5"/></linearGradient><linearGradient id="d" x1="0.5" x2="0.5" y2="1.482" gradientUnits="objectBoundingBox"><stop offset="0" stop-color="#e42d1a"/><stop offset="0.1" stop-color="#e95247"/><stop offset="0.3" stop-color="#c137a2"/><stop offset="0.659" stop-color="#9243be"/><stop offset="1" stop-color="#694ed6"/></linearGradient></defs><g transform="translate(9)"><g class="u" transform="matrix(1, 0, 0, 1, -9, 0)"><path class="a" d="M367.933,650.087l72.646-.416,19.364-.006,6.415,0,19.4-.006,88.636-.027s20.274-28.673-1.382-55.905c-22.453-28.235-33.371-5.24-40.273-44.984C515.368,448.7,343.606,506.924,388.658,592.056,404.88,622.709,356.727,606.417,367.933,650.087Z" transform="translate(-357.22 -489.92)"/></g><path class="a" d="M367.933,650.087l72.646-.416,19.364-.006,6.415,0,19.4-.006,88.636-.027s20.274-28.673-1.382-55.905c-22.453-28.235-33.371-5.24-40.273-44.984C515.368,448.7,343.606,506.924,388.658,592.056,404.88,622.709,356.727,606.417,367.933,650.087Z" transform="translate(-366.223 -489.916)"/><g transform="translate(100.447 0.354)"><path class="b" d="M1278.494,1743.525s.38,4.4-.55,4.855l-11.9-.025s0-1.373,1.911-1.678,5.268-1.424,5.836-3.915S1278.494,1743.525,1278.494,1743.525Z" transform="translate(-1260.841 -1588.987)"/><path class="b" d="M1569.034,1738.232s.358,6.1-.572,6.557l-11.9-.024s0-1.373,1.911-1.678,5.267-1.424,5.835-3.915S1569.034,1738.232,1569.034,1738.232Z" transform="translate(-1517.247 -1585.395)"/><path class="c" d="M1366.1,1161.062a22.28,22.28,0,0,1-3.372,1.438,15.039,15.039,0,0,1-3.233.09c-4.046-10.847-16.594-54.94-16.594-54.94a191.116,191.116,0,0,1-5.032,34.127c-.061.262-.123.522-.184.78v0c-.055.235-.112.468-.167.7a.256.256,0,0,0-.007.031c-2.776,11.535-5.558,19.39-5.558,19.39s-.719.909-2.719.494a5.211,5.211,0,0,1-3.058-1.484c1.484-46.982,2.312-73.475,2.312-73.475s19.861-10.73,25.256-1.558S1366.1,1161.062,1366.1,1161.062Z" transform="translate(-1313.912 -1007.475)"/><path class="d" d="M1271.837,566.371a91.4,91.4,0,0,1-2.978-25.182c.027-10.3.952-17.553-2.147-18.776,0,0-9.577-2.784-16.168-4.011a32.568,32.568,0,0,0-3.1-1.542c-2.081-.845-10.2-12.64-11.571-15.464s-3.653-15.128-3.653-15.128l-3.162,1.008s-.95,13.811-.495,17.411,10.5,19.078,11.336,20.433h0c3.577,13.074,0,34.349,1.635,39.093.84,2.44,16.435,6.911,24.97,6.349.425-.028.833-.069,1.221-.123h0c2.019-.281,3.488-.925,4.026-2.057A2.8,2.8,0,0,0,1271.837,566.371Z" transform="translate(-1227.648 -480.854)"/><path class="e" d="M1226.271,445.569s1.787-5.191.48-5.342-4.586-.135-4.99.742,1.349,5.608,1.349,5.608Z" transform="translate(-1221.7 -440.154)"/><path class="e" d="M1222.042,441.209s-.169,1.787.4,2.124.776-2.124.776-2.124.034,2.019.472,2.156.708-2.325.708-2.325.047,1.956.344,1.888.5-1.888.5-1.888.135,1.42.54,1.165.789-1.779.789-1.779Z" transform="translate(-1221.982 -440.395)"/><path class="e" d="M1260.632,453.373a5.107,5.107,0,0,0,1.491-1.835c.27-.877,1.063-2.351.641-2.529s-1.652,1.72-1.652,1.72Z" transform="translate(-1256.061 -447.959)"/><path class="e" d="M1439.307,715.443l-.154.8s-.711,2.453,2.29,3.425,5.53,1.423,5.828-.519a41.408,41.408,0,0,1,.2-5.2,8.842,8.842,0,0,1,.4-1.473l-5.931-1.3-1.811-.06Z" transform="translate(-1413.556 -679.306)"/><path class="f" d="M1443.938,711.122l-.552,2.912c5.635,1.492,8.1-1.023,8.293-1.555l-5.931-1.3Z" transform="translate(-1417.356 -679.306)"/><path class="e" d="M1445.693,628.452c-1.748,3.551-6.548,2.072-8.571,1.25-.57-.231-.919-.409-.919-.409-.613-.363-.69-1.511-.478-2.927a22.129,22.129,0,0,1,2.707-7.544c1.117-1.336,2.878-2.626,7.412-.067S1447.934,623.9,1445.693,628.452Z" transform="translate(-1410.501 -596.487)"/><path class="g" d="M1450.9,596.424a16.73,16.73,0,0,0,5.025.047c2.3-.316,4.615,1.392,5.331,2.071a1.3,1.3,0,0,0-.063-.563,1.172,1.172,0,0,1,.253.763c.031.04.043.064.031.068a1.5,1.5,0,0,1,.69.243s-.185-.082-.288.023a.12.12,0,0,1-.04.025c2.766,2.444,1.643,7.585.284,8.466a37.163,37.163,0,0,0-4.441,3.979,7.225,7.225,0,0,1,.672-2.241c.573-1.176-.5-1.476-1.691-2.419s.375-2.2-.539-3.493-5.409-1.943-5.147-2.659C1449.528,599.7,1450.849,596.589,1450.9,596.424Z" transform="translate(-1423.458 -578.076)"/><path class="h" d="M1444.592,693.48s-.292.439-1.462-.079c0,0-.983-.435-.755-.953A3.451,3.451,0,0,1,1444.592,693.48Z" transform="translate(-1416.434 -662.825)"/><path class="i" d="M1263.7,803.493s-2.7,17.95-22.937,30.414l-1.888,5.485h7.3s18.121-15.2,19.336-35.383Z" transform="translate(-1236.856 -760.831)"/><path class="j" d="M1450.3,783.039v-2.721l3.335.944-1.521,2.293Z" transform="translate(-1423.458 -740.377)"/><path class="k" d="M1425.519,747.919l-1.952,1.668a7.674,7.674,0,0,0,.775,4.857l3.934-2.249A5.616,5.616,0,0,1,1425.519,747.919Z" transform="translate(-1399.768 -711.782)"/><path class="k" d="M1464.5,764.484a7.283,7.283,0,0,0,1.415,3.158s4.432-.775,5.662-2.9l-1.856-2.9S1469.278,763.822,1464.5,764.484Z" transform="translate(-1435.992 -724.072)"/><path class="e" d="M1655.669,1175.807s.008,4.018-.362,4.818a17.027,17.027,0,0,1-2.793,3.959c-.764.557.165-3.218-.075-3.909s-.534,1.362-.888,1.447-.45-1.725-.532-2.379,1.507-2.455,1.98-3.915S1655.669,1175.807,1655.669,1175.807Z" transform="translate(-1600.608 -1088.871)"/><path class="c" d="M1541.658,794.1s3.9,1.062,6.537,6.872c2.769,6.093,10.18,19.628,10.455,21.5s-.491,19.313-.491,19.313-3.244.126-4.245-1.413c0,0-1.129-15.315-1.629-16.147s-13.263-16.053-12.187-19.915A67.965,67.965,0,0,0,1541.658,794.1Z" transform="translate(-1502.658 -752.544)"/><path class="c" d="M1518.183,967.267a10.592,10.592,0,0,1-4.026,2.057h0a3.206,3.206,0,0,1-1.22.123c-7.133-.735-6.036-28.445-2.58-30.492,3.642-2.158,4.935,1.12,4.935,1.12a91.4,91.4,0,0,0,2.978,25.182A2.8,2.8,0,0,1,1518.183,967.267Z" transform="translate(-1474.076 -879.74)"/><path class="l" d="M1422.775,1591.342c.047-.216.1-.449.167-.7C1422.887,1590.878,1422.83,1591.111,1422.775,1591.342Z" transform="translate(-1399.166 -1455.557)"/><path class="b" d="M1425.762,1294.014c2.182-10.329-.17-38.007.881-38.533,1.079-.54,4.151,4.406,4.151,4.406A191.093,191.093,0,0,1,1425.762,1294.014Z" transform="translate(-1401.802 -1159.712)"/></g><g transform="translate(37.855 34.531)"><path class="e" d="M966.56,1712.987l-.629-4.531,2.642-2.208.832,6Z" transform="translate(-933.371 -1591.765)"/><path class="b" d="M964.6,1754.989H953.829a5.915,5.915,0,0,1,.3-2.887c.539-1.2,1.378-1.933,1.455-2.849a3.236,3.236,0,0,0,3.084.949,11.816,11.816,0,0,0,1.869,2.423C961.246,1753.13,964.385,1752.95,964.6,1754.989Z" transform="translate(-922.638 -1629.721)"/><path class="c" d="M927.21,1198.242c-.7,5.667-1.281,11.01-1.75,15.99-2.507,26.532-2.015,42.748-2.015,42.748s-.181.48-1.735.487a8.9,8.9,0,0,1-1.739-.187s-5.613-17.326-5.18-27.185a15.1,15.1,0,0,1,.438-3.191c1.347-5.044-4.983-24.336,1.9-31.52S927.534,1195.641,927.21,1198.242Z" transform="translate(-887.41 -1138.198)"/><path class="b" d="M927.21,1198.242c-.7,5.667-1.281,11.01-1.75,15.99l-10.669,15.864a15.1,15.1,0,0,1,.438-3.191c1.347-5.044-4.983-24.336,1.9-31.52S927.534,1195.641,927.21,1198.242Z" transform="translate(-887.41 -1138.198)"/><path class="e" d="M1095.55,737.217s-.26-1.295-.552-2.283c-.13-.437.772-3.309,1.4-3.662s2.249,1.581,1.79,3.066c-.236.763-.624,3.245-.624,3.245Z" transform="translate(-1047.272 -731.23)"/><path class="e" d="M1088.479,760.979s-.339-.751-.646-.873-.635-1.349-.859-1.836c0,0,.217-.318.6.091.232.25.749.983.749.983Z" transform="translate(-1040.202 -754.991)"/><path class="e" d="M692.434,799.2c-.066.136-.158.38-.24.609q0-.094,0-.185c0-.456-1.707-2.938-2.407-3.093s-1.688,2.17-.814,3.455c.449.66,1.547,2.92,1.547,2.92l1.815-.937s.1-.817.362-1.023.212-1.476.285-2.007C692.979,798.934,692.678,798.693,692.434,799.2Z" transform="translate(-688.627 -788.853)"/><path class="e" d="M815.994,1707.254c-.152-1.452-.19-5.273-.19-5.273s3.893-1.245,3.75-.39a27.5,27.5,0,0,0-.513,6.28l-1.574.94Z" transform="translate(-800.871 -1587.391)"/><path class="c" d="M830.79,1234.29s-15.039,41.225-18,59.108a3,3,0,0,1-1.965.315,2.2,2.2,0,0,1-1.849-1.185s-2.717-21.432,2.683-28.874c3.71-5.112-1.6-27.563,7.041-29.364S830.79,1234.29,830.79,1234.29Z" transform="translate(-794.242 -1174.516)"/><path class="g" d="M792.579,841.453h0a.332.332,0,0,0-.013-.053c-.088-.363-.184-.72-.287-1.074v0a24.192,24.192,0,0,0-1.093-3.027c-.233-.523-.473-1.007-.72-1.438-.038-.066-.074-.128-.11-.192h0a4.321,4.321,0,0,0-1.718-1.861,5.156,5.156,0,0,0-2.83-.118,1.306,1.306,0,0,1,.54-.361,4.3,4.3,0,0,0-1.463.623c-6.927-1.549-6.522,8.25-6.05,10.471s-1.76,3.3-4.905,5.572c-6,4.336-5.9,8.932-5.9,8.932.054.023.113.049.174.08.241-.594.754-1.72,1.291-1.958a23.276,23.276,0,0,0-.576,2.327c.914.5,2.18,1.284,3.553,2.165h0c1.838,1.177,3.867,2.531,5.493,3.63a3.729,3.729,0,0,1-.04-1.446l.518,1.6.068.209c1.038.7,1.856,1.266,2.272,1.554l.115.078.186.129c-.138-.567.468-2.046,1.484-3.91.07-.13.144-.262.219-.4.328-.589.695-1.21,1.089-1.85.142-.231.286-.463.435-.7,0,0,0,0,0,0,.119-.19.24-.378.365-.57v0c.294-.455.6-.913.91-1.372.805-1.189,1.658-2.37,2.5-3.453a30.291,30.291,0,0,1,3.428-3.844c.033-.068.064-.137.092-.207a6.858,6.858,0,0,0,.372-1.185c.029-.124.055-.249.078-.374a16.243,16.243,0,0,0,.252-2.938,16.629,16.629,0,0,1-.037,2.961c-.019.159-.04.307-.064.444v0a6.089,6.089,0,0,1-.182.779,4.06,4.06,0,0,0,.437-.673,4.785,4.785,0,0,0,.227-.5C793.5,847.436,793.281,844.349,792.579,841.453Z" transform="translate(-758.702 -821.336)"/><path class="m" d="M917.781,944.584a6.106,6.106,0,0,1-3.6,1.228,4.861,4.861,0,0,1-2.819-2c.618-.221.672-1.124.1-4.885l.3.014,4.986.239s.116,1.541.327,2.977C917.243,943.364,917.486,944.5,917.781,944.584Z" transform="translate(-885.206 -914.541)"/><path class="n" d="M919.712,939.285s.116,1.541.327,2.977c-2.722.327-4.522-1.933-5.313-3.216Z" transform="translate(-888.178 -914.645)"/><path class="g" d="M890.493,856.658a14.4,14.4,0,0,1-2.381-3.9c-.447-1.334-.5-6.516,4.707-6.544a7.011,7.011,0,0,1,3.037.659c1.219.584,3.059,1.961,1.93,6.659l-.242,1.566Z" transform="translate(-864.525 -832.709)"/><path class="o" d="M872.5,1004.054a21.12,21.12,0,0,1-14.636,1.873c-.1-.023-6.708-1.078-6.708-1.078.114-.311.968-5.419,1.08-5.7,1.445-3.73,4.087-23.972,6.294-24.971a5,5,0,0,0,3.552.911c1.587-.14,2.119-.826,1.987-1.563,1.757.83,3.106,1.6,3.106,1.6C868.784,977.529,872.5,1004.054,872.5,1004.054Z" transform="translate(-832.075 -945.072)"/><path class="m" d="M909.138,871.957s-6.4,1.06-7-2.934-1.827-6.547,2.232-7.393,5.083.56,5.607,1.844S910.786,871.579,909.138,871.957Z" transform="translate(-876.496 -846.092)"/><path class="g" d="M894.29,854.477s-1.059,4.948-3.65,6.041-3.868.546-3.868.546a7.715,7.715,0,0,0,1.825-4.879S892.634,852.444,894.29,854.477Z" transform="translate(-863.507 -839.472)"/><path class="g" d="M947.577,855.721a5.724,5.724,0,0,1,1.938,1.821c.471.97.926,3.042,1.526,2.88,0,0,.849-3.382-.906-4.963C948.275,853.783,947.577,855.721,947.577,855.721Z" transform="translate(-917.172 -840.27)"/><path class="b" d="M979.471,780.3a4.087,4.087,0,0,0-1.144-.353,3.548,3.548,0,0,0-1.005.1s-1.8,11.219-1.939,11.814-7.742,9.164-9.793,9.13a9.291,9.291,0,0,0-4.453,1.674s4.313,9.12,4.528,10.834c.234,1.864,2.467,30.572,2.467,30.572s-.133,1.335,2.363.617a8.52,8.52,0,0,0,3.119-1.312s-2.292-22.6-2.773-29.629a13.477,13.477,0,0,0-.438-2.622,2.657,2.657,0,0,1,.429-2.258c3.155-4.331,8.137-11.347,8.414-12.838C979.655,793.842,979.471,780.3,979.471,780.3Z" transform="translate(-929.14 -774.222)"/><path class="b" d="M812.447,1754.989H801.674a5.915,5.915,0,0,1,.3-2.887c.539-1.2,1.378-1.933,1.455-2.849a3.236,3.236,0,0,0,3.084.949,11.813,11.813,0,0,0,1.869,2.423C809.091,1753.13,812.23,1752.95,812.447,1754.989Z" transform="translate(-788.349 -1629.721)"/><path class="b" d="M734.335,867.367c-.363-2.234-5-11.2-5-11.2s-2.93-.876-4.859-.178-11.907-4.935-12.227-5.454-5.664-10.478-5.664-10.478a1.24,1.24,0,0,0-1.153.114,1.3,1.3,0,0,0-.706,1.081s4.125,12.539,5.222,14.479c.662,1.17,6.225,5.242,10.539,8.292a2.707,2.707,0,0,1,1.121,2.573c-.58,4.288-.727,6.7-1.395,14.06-.553,6.1-.765,17.921-.765,17.921a39.889,39.889,0,0,0,8.159,1.892c3.331.222,4.057-3.29,4.057-3.29S734.708,869.664,734.335,867.367Z" transform="translate(-702.837 -827.198)"/><path class="h" d="M948.771,930.323a2.857,2.857,0,0,0,1.695.319c.629-.094.771-.84.771-.84a2.477,2.477,0,0,0-1.134,0A4.835,4.835,0,0,0,948.771,930.323Z" transform="translate(-918.226 -906.433)"/></g><g transform="translate(43.296 12.012)"><path class="p" d="M786.056,572.8a7.339,7.339,0,0,1,1.3,4.277,6.647,6.647,0,0,1-1.726,3.471l2.38,1.269s1.765-3.134,1.17-5.752a6.7,6.7,0,0,0-1.646-2.658A2.286,2.286,0,0,0,786.056,572.8Z" transform="translate(-779.683 -569.684)"/><path class="q" d="M736.466,549.561l-1.507-3.332s7.034.238,9.365,5.969C744.324,552.2,739.4,548.688,736.466,549.561Z" transform="translate(-734.959 -546.229)"/></g><g transform="translate(14.232 93.262)"><path class="p" d="M491.43,1245.066a6.232,6.232,0,0,1-2.109-3.158,5.645,5.645,0,0,1,.55-3.245l-2.247-.447s-.665,2.981.461,4.963a5.686,5.686,0,0,0,1.991,1.756A1.941,1.941,0,0,0,491.43,1245.066Z" transform="translate(-487.429 -1238.215)"/><path class="q" d="M501.865,1283.306l2.044,2.339s-5.777,1.534-9.08-2.553C494.829,1283.092,499.693,1284.737,501.865,1283.306Z" transform="translate(-493.96 -1277.823)"/></g><g transform="translate(123.957)"><path class="r" d="M1437.829,447.377a4.119,4.119,0,0,1,5.839-.969l2.152-2.058s-2.011-1.527-6.649,1.211C1436.136,447.353,1437.829,447.377,1437.829,447.377Z" transform="translate(-1435.548 -443.925)"/><path class="s" d="M1421.943,454.529s-.456-3.81,5.921-6.187c0,0-2.305,1.117-3.016,4.915Z" transform="translate(-1421.936 -447.823)"/></g><path class="t" d="M1632.642,512.974s1.885-1.19,2.083-2.628c0,0,1.835.1,2.232.694,0,0-.843,2.381-1.835,2.827C1635.122,513.867,1632.89,514.016,1632.642,512.974Z" transform="translate(-1483.944 -502.547)"/><path class="t" d="M1139.513,1411.813s-2.01-1.27-2.222-2.8c0,0-1.958.106-2.381.741,0,0,.9,2.54,1.958,3.016C1136.868,1412.766,1139.248,1412.924,1139.513,1411.813Z" transform="translate(-1044.654 -1295.693)"/><path class="q" d="M1764.768,810.414s2.02-1.275,2.232-2.817c0,0,1.966.106,2.391.744,0,0-.9,2.551-1.966,3.029C1767.425,811.37,1765.034,811.53,1764.768,810.414Z" transform="translate(-1600.556 -764.896)"/></g></svg>