<svg xmlns="http://www.w3.org/2000/svg" xmlns:xlink="http://www.w3.org/1999/xlink" width="32" height="32" viewBox="0 0 32 32"><defs><style>.a{fill:#c137a2;opacity:0.061;}.b{stroke:rgba(0,0,0,0);stroke-miterlimit:10;fill:url(#a);}</style><linearGradient id="a" x1="0.5" y1="1.385" x2="0.5" y2="-0.098" gradientUnits="objectBoundingBox"><stop offset="0" stop-color="#e42d1a"/><stop offset="0.197" stop-color="#c437e6"/><stop offset="0.597" stop-color="#ed54d3"/><stop offset="1" stop-color="#e08810"/></linearGradient></defs><g transform="translate(-595 -190)"><circle class="a" cx="16" cy="16" r="16" transform="translate(595 190)"/><path class="b" d="M7.488-6.012l6.75-6.75-1.055-1.055-5.7,5.7L4.816-10.793,3.762-9.738Zm6.75-11.25a1.449,1.449,0,0,1,1.055.457,1.449,1.449,0,0,1,.457,1.055v9.7a1.478,1.478,0,0,1-.668,1.23L9-.738,2.918-4.816a1.478,1.478,0,0,1-.668-1.23v-9.7A1.449,1.449,0,0,1,2.707-16.8a1.449,1.449,0,0,1,1.055-.457Z" transform="translate(602 215)"/></g></svg>