<svg xmlns="http://www.w3.org/2000/svg" xmlns:xlink="http://www.w3.org/1999/xlink" width="501" height="113.849" viewBox="0 0 501 113.849"><defs><style>.a{opacity:0.403;fill:url(#a);}.b,.d{fill:none;}.b{stroke:#79d2de;stroke-linecap:round;stroke-miterlimit:10;stroke-width:1.5px;}.c{fill:#79d2de;}.d{stroke:#e74fd5;}.e{fill:#e74fd5;}.f,.h{fill:#fff;}.f{font-size:9px;}.f,.j{font-family:Roboto-Light, Roboto;font-weight:300;}.g{font-family:Roboto-Bold, Roboto;}.g,.i{font-weight:700;}.i{fill:rgba(0,0,0,0.87);font-size:23px;font-family:FuturaEF-Bold, FuturaEF;letter-spacing:0.02em;}.j{fill:rgba(0,0,0,0.5);font-size:10px;}.k{filter:url(#b);}</style><linearGradient id="a" x1="0.5" x2="0.5" y2="1" gradientUnits="objectBoundingBox"><stop offset="0" stop-color="#79d2de"/><stop offset="1" stop-color="#fff4f4" stop-opacity="0"/></linearGradient><filter id="b" x="373" y="1.26" width="128" height="92" filterUnits="userSpaceOnUse"><feOffset dy="1" input="SourceAlpha"/><feGaussianBlur stdDeviation="4" result="c"/><feFlood flood-color="#53559b" flood-opacity="0.176"/><feComposite operator="in" in2="c"/><feComposite in="SourceGraphic"/></filter></defs><g transform="translate(-875 -383.24)"><g transform="translate(705 42.99)"><path class="a" d="M340.306,383.017c7.186-2.529,19.9-10.116,30.956-10.116s17.689,8.851,23.217,12.645,8.291,7.587,13.819,7.587,16.031-5.059,23.217-5.059,34.273-.632,43.671,5.059,21.007,12.012,29.3,12.012,13.267-10.116,25.981-10.116,32.614,1.9,39.249,5.69,18.794,6.322,25.428,10.748,26.99,12.012,31.461,14.542,21.607,13.277,31.005,13.277V486h-317.3Z" transform="translate(-119.307 -31.901)"/><path class="b" d="M340.306,263.017c7.186-2.529,19.9-10.116,30.956-10.116s17.689,8.851,23.217,12.645,8.291,7.587,13.819,7.587,16.031-5.059,23.217-5.059,34.273-.632,43.671,5.059,21.007,12.012,29.3,12.012,13.267-10.116,25.981-10.116,32.614,1.9,39.249,5.69,18.794,6.322,25.428,10.748,26.99,12.012,31.461,14.542,21.607,13.277,31.005,13.277" transform="translate(-119.307 88.099)"/><circle class="c" cx="5" cy="5" r="5" transform="translate(536.726 402.285)"/></g><line class="d" x2="347" transform="translate(904.5 432.5)"/><g transform="translate(4 2)"><rect class="e" width="110" height="20" rx="10" transform="translate(871 420)"/><text class="f" transform="translate(879 434)"><tspan x="0" y="0">Bias free target </tspan><tspan class="g" y="0">&lt;0.05%</tspan></text></g><g transform="translate(0 23)"><g class="k" transform="matrix(1, 0, 0, 1, 875, 360.24)"><rect class="h" width="104" height="68" rx="8" transform="translate(385 12.26)"/></g><text class="i" transform="translate(1311.709 423.5)"><tspan x="-35.397" y="0">0,04%</tspan></text><text class="j" transform="translate(1275 394)"><tspan x="0" y="0">Minority rate gap</tspan></text></g></g></svg>