<svg xmlns="http://www.w3.org/2000/svg" xmlns:xlink="http://www.w3.org/1999/xlink" width="276" height="265" viewBox="0 0 276 265"><defs><style>.a{fill:none;}.b{clip-path:url(#a);}.c{fill:#dae2f4;}.d{fill:#a2b6e1;font-size:12px;font-family:AdobeClean-Regular, Adobe Clean;}.e{fill:#718dcf;font-size:14px;font-family:AdobeClean-Bold, Adobe Clean;font-weight:700;}</style><clipPath id="a"><rect class="a" width="276" height="265"/></clipPath></defs><g class="b"><g transform="translate(-79 -506)"><circle class="c" cx="12" cy="12" r="12" transform="translate(79 506)"/><text class="d" transform="translate(123 529)"><tspan x="0" y="9">Categorus</tspan></text><text class="e" transform="translate(123 508)"><tspan x="0" y="10">Taskus namus</tspan></text></g><g transform="translate(-79 -450)"><circle class="c" cx="12" cy="12" r="12" transform="translate(79 506)"/><text class="d" transform="translate(123 529)"><tspan x="0" y="9">Categorus</tspan></text><text class="e" transform="translate(123 508)"><tspan x="0" y="10">Taskus namus</tspan></text></g><g transform="translate(-79 -394)"><circle class="c" cx="12" cy="12" r="12" transform="translate(79 506)"/><text class="d" transform="translate(123 529)"><tspan x="0" y="9">Categorus</tspan></text><text class="e" transform="translate(123 508)"><tspan x="0" y="10">Taskus namus</tspan></text></g><g transform="translate(-79 -338)"><circle class="c" cx="12" cy="12" r="12" transform="translate(79 506)"/><text class="d" transform="translate(123 529)"><tspan x="0" y="9">Categorus</tspan></text><text class="e" transform="translate(123 508)"><tspan x="0" y="10">Taskus namus</tspan></text></g><g transform="translate(-79 -282)"><circle class="c" cx="12" cy="12" r="12" transform="translate(79 506)"/><text class="d" transform="translate(123 529)"><tspan x="0" y="9">Categorus</tspan></text><text class="e" transform="translate(123 508)"><tspan x="0" y="10">Lorem ipsum transaction namus</tspan></text></g></g></svg>