<svg xmlns="http://www.w3.org/2000/svg" width="95.98" height="22.842" viewBox="0 0 95.98 22.842"><defs><style>.a{fill:#486ec2;font-size:16px;font-family:AdobeClean-Bold, Adobe Clean;font-weight:700;}.b{fill:#abbce3;}.c{fill:#fbfcfe;}</style></defs><g transform="translate(-1167.021 -588.158)"><g transform="translate(1195.988 588.748)"><text class="a" transform="translate(0.012 16.252)"><tspan x="0" y="0">FineEqual</tspan></text></g><g transform="translate(1167.021 588.158)"><path class="b" d="M18.956-73.842l9.331,4.18v6.221a12.878,12.878,0,0,1-2.673,7.9A11.608,11.608,0,0,1,18.956-51,11.608,11.608,0,0,1,12.3-55.544a12.878,12.878,0,0,1-2.673-7.9v-6.221Z" transform="translate(-9.625 73.842)"/><path class="c" d="M12.412,4.885H8.545V6.309a1.831,1.831,0,0,1-3.663,0V3.216l-1.651.992A1.624,1.624,0,0,0,2.441,5.6v1.2L.406,7.98a.812.812,0,0,0-.3,1.112l2.035,3.525a.814.814,0,0,0,1.112.3L5.885,11.4H9.359a1.629,1.629,0,0,0,1.628-1.628h.407a.813.813,0,0,0,.814-.814V7.326h.2a.609.609,0,0,0,.61-.61V5.5A.609.609,0,0,0,12.412,4.885Zm3.757-.951L14.134.408a.814.814,0,0,0-1.112-.3l-2.63,1.519h-2.6a1.64,1.64,0,0,0-.862.247l-.852.532A.808.808,0,0,0,5.7,3.1V6.309a1.017,1.017,0,0,0,2.035,0V4.071h4.68A1.425,1.425,0,0,1,13.836,5.5V6.22l2.035-1.175a.815.815,0,0,0,.3-1.112Z" transform="translate(0.123 6.754)"/></g></g></svg>