<svg xmlns="http://www.w3.org/2000/svg" width="89.661" height="71.722" viewBox="0 0 89.661 71.722"><defs><style>.a{fill:#486ec2;opacity:0.179;}</style></defs><path class="a" d="M68.368,26.9H47.073v7.845a10.087,10.087,0,0,1-20.174,0V17.706L17.808,23.17a8.947,8.947,0,0,0-4.357,7.677v6.626L2.243,43.946A4.472,4.472,0,0,0,.6,50.068L11.812,69.485a4.484,4.484,0,0,0,6.122,1.639L32.42,62.761H51.556a8.974,8.974,0,0,0,8.966-8.966h2.242a4.478,4.478,0,0,0,4.483-4.483V40.346h1.121a3.354,3.354,0,0,0,3.362-3.362V30.259A3.354,3.354,0,0,0,68.368,26.9Zm20.692-5.24L77.852,2.24A4.484,4.484,0,0,0,71.73.6L57.244,8.965H42.927a9.033,9.033,0,0,0-4.749,1.359l-4.693,2.928a4.453,4.453,0,0,0-2.1,3.8V34.742a5.6,5.6,0,1,0,11.208,0V22.414H68.368a7.85,7.85,0,0,1,7.845,7.845v3.993l11.208-6.472a4.488,4.488,0,0,0,1.639-6.122Z" transform="translate(0.002 -0.002)"/></svg>