<svg xmlns="http://www.w3.org/2000/svg" width="154" height="113.938" viewBox="0 0 154 113.938"><defs><style>.a{fill:#dee5f4;}.b{fill:#49c249;font-size:62px;font-family:MaterialIcons-Regular, Material Icons;}</style></defs><g transform="translate(-1054 -352.062)"><path class="a" d="M99.088,38.981H68.226v11.37a14.619,14.619,0,0,1-29.238,0V25.662L25.81,33.58A12.967,12.967,0,0,0,19.5,44.707v9.6L3.252,63.692A6.482,6.482,0,0,0,.876,72.565L17.12,100.706a6.5,6.5,0,0,0,8.873,2.376L46.987,90.96H74.723A13.007,13.007,0,0,0,87.718,77.966h3.249a6.49,6.49,0,0,0,6.5-6.5V58.473h1.624a4.861,4.861,0,0,0,4.873-4.873V43.854A4.861,4.861,0,0,0,99.088,38.981Zm29.99-7.594L112.834,3.246A6.5,6.5,0,0,0,103.961.87L82.967,12.992H62.216a13.092,13.092,0,0,0-6.883,1.97L48.53,19.2a6.454,6.454,0,0,0-3.046,5.5V50.352a8.122,8.122,0,0,0,16.243,0V32.484h37.36a11.378,11.378,0,0,1,11.37,11.37v5.787L126.7,40.261a6.5,6.5,0,0,0,2.376-8.873Z" transform="translate(1054.001 352.06)"/><text class="b" transform="translate(1146 465)"><tspan x="0" y="0">verified_user</tspan></text></g></svg>