<svg xmlns="http://www.w3.org/2000/svg" xmlns:xlink="http://www.w3.org/1999/xlink" width="48" height="48" viewBox="0 0 48 48"><defs><style>.a{fill:#c137a2;opacity:0.061;}.b{fill:none;}.c{stroke:rgba(0,0,0,0);stroke-miterlimit:10;fill:url(#a);}</style><linearGradient id="a" x1="0.5" y1="1.385" x2="0.5" y2="-0.098" gradientUnits="objectBoundingBox"><stop offset="0" stop-color="#e42d1a"/><stop offset="0.197" stop-color="#c437e6"/><stop offset="0.597" stop-color="#ed54d3"/><stop offset="1" stop-color="#e08810"/></linearGradient></defs><g transform="translate(-595 -189)"><circle class="a" cx="24" cy="24" r="24" transform="translate(595 189)"/><path class="b" d="M0,0H24V24H0Z" transform="translate(607 201)"/><path class="c" d="M19,14V6a2.006,2.006,0,0,0-2-2H3A2.006,2.006,0,0,0,1,6v8a2.006,2.006,0,0,0,2,2H17A2.006,2.006,0,0,0,19,14Zm-9-1a3,3,0,1,1,3-3A3,3,0,0,1,10,13ZM23,7V18a2.006,2.006,0,0,1-2,2H4V18H21V7Z" transform="translate(607 201)"/></g></svg>