<svg xmlns="http://www.w3.org/2000/svg" xmlns:xlink="http://www.w3.org/1999/xlink" width="48" height="48" viewBox="0 0 48 48"><defs><style>.a{fill:#c137a2;opacity:0.061;}.b{stroke:rgba(0,0,0,0);stroke-miterlimit:10;fill:url(#a);}</style><linearGradient id="a" x1="0.5" y1="1.385" x2="0.5" y2="-0.098" gradientUnits="objectBoundingBox"><stop offset="0" stop-color="#e42d1a"/><stop offset="0.197" stop-color="#c437e6"/><stop offset="0.597" stop-color="#ed54d3"/><stop offset="1" stop-color="#e08810"/></linearGradient></defs><g transform="translate(-595 -189)"><circle class="a" cx="24" cy="24" r="24" transform="translate(595 189)"/><path class="b" d="M17.079-5.557a13.286,13.286,0,0,1,3.115.409,10.13,10.13,0,0,1,3.115,1.328,2.562,2.562,0,0,1,1.43,2.094V.979H18.2V-1.728a4.523,4.523,0,0,0-2.145-3.779A7.718,7.718,0,0,1,17.079-5.557Zm-11.8.409A13.286,13.286,0,0,1,8.4-5.557a13.286,13.286,0,0,1,3.115.409A9.818,9.818,0,0,1,14.6-3.821a2.565,2.565,0,0,1,1.4,2.094V.979H.738V-1.728a2.562,2.562,0,0,1,1.43-2.094A10.13,10.13,0,0,1,5.283-5.149Zm5.362-3.523A2.976,2.976,0,0,1,8.4-7.7a3.141,3.141,0,0,1-2.3-.97,3.141,3.141,0,0,1-.97-2.3,3.141,3.141,0,0,1,.97-2.3,3.141,3.141,0,0,1,2.3-.97,3.058,3.058,0,0,1,2.272.97,3.183,3.183,0,0,1,.945,2.3A3.141,3.141,0,0,1,10.645-8.672Zm8.732,0a3.141,3.141,0,0,1-2.3.97,3.141,3.141,0,0,1-2.3-.97,3.141,3.141,0,0,1-.97-2.3,3.141,3.141,0,0,1,.97-2.3,3.141,3.141,0,0,1,2.3-.97,3.141,3.141,0,0,1,2.3.97,3.141,3.141,0,0,1,.97,2.3A3.141,3.141,0,0,1,19.377-8.672Z" transform="translate(606.047 219.408)"/></g></svg>