<svg xmlns="http://www.w3.org/2000/svg" width="88" height="88" viewBox="0 0 88 88"><defs><style>.a{fill:#493796;}.b{fill:#b4a6ea;}.c{fill:#80d194;font-size:21px;font-family:MaterialIcons-Regular, Material Icons;}</style></defs><g transform="translate(-353 -276)"><circle class="a" cx="44" cy="44" r="44" transform="translate(353 276)"/><path class="b" d="M36.491,14.357H25.125v4.188a5.384,5.384,0,1,1-10.768,0V9.452L9.5,12.368a4.775,4.775,0,0,0-2.326,4.1V20L1.2,23.457a2.387,2.387,0,0,0-.875,3.268L6.3,37.089a2.394,2.394,0,0,0,3.268.875L17.3,33.5H27.518A4.79,4.79,0,0,0,32.3,28.714h1.2a2.39,2.39,0,0,0,2.393-2.393V21.536h.6a1.79,1.79,0,0,0,1.795-1.795V16.152A1.79,1.79,0,0,0,36.491,14.357Zm11.045-2.8L41.554,1.2A2.394,2.394,0,0,0,38.286.321L30.554,4.786H22.912a4.822,4.822,0,0,0-2.535.725L17.872,7.074A2.377,2.377,0,0,0,16.75,9.1v9.444a2.991,2.991,0,1,0,5.982,0v-6.58H36.491a4.19,4.19,0,0,1,4.187,4.188v2.131l5.982-3.455a2.4,2.4,0,0,0,.875-3.268Z" transform="translate(369.36 298.263)"/><text class="c" transform="translate(403 339)"><tspan x="0" y="0">verified_user</tspan></text></g></svg>