<svg xmlns="http://www.w3.org/2000/svg" xmlns:xlink="http://www.w3.org/1999/xlink" width="181.375" height="50.626" viewBox="0 0 181.375 50.626"><defs><style>.a{fill:rgba(255,255,255,0.87);font-size:32px;font-family:FuturaEF-Bold, FuturaEF;font-weight:700;letter-spacing:0.02em;}.b{fill:url(#a);}.c{filter:url(#b);}</style><linearGradient id="a" x1="0.5" y1="1.385" x2="0.5" y2="-0.098" gradientUnits="objectBoundingBox"><stop offset="0" stop-color="#e42d1a"/><stop offset="0.197" stop-color="#c437e6"/><stop offset="0.597" stop-color="#ed54d3"/><stop offset="1" stop-color="#e08810"/></linearGradient><filter id="b" x="0" y="0" width="44.656" height="50.626" filterUnits="userSpaceOnUse"><feOffset dy="3" input="SourceAlpha"/><feGaussianBlur stdDeviation="3" result="c"/><feFlood flood-opacity="0.239"/><feComposite operator="in" in2="c"/><feComposite in="SourceGraphic"/></filter></defs><g transform="translate(-32.625 -31.158)"><text class="a" transform="translate(83 64)"><tspan x="0" y="0">FinEqual</tspan></text><g transform="translate(-245 18)"><g class="c" transform="matrix(1, 0, 0, 1, 277.63, 13.16)"><path class="b" d="M-3001.672-170.374h0a16.185,16.185,0,0,1-8.079-4.778l3.332-1.924h4.962a2.328,2.328,0,0,0,2.325-2.326h.582a1.164,1.164,0,0,0,1.163-1.163v-2.325h.291a.873.873,0,0,0,.872-.872v-1.744a.873.873,0,0,0-.872-.871h-5.522v2.034a2.619,2.619,0,0,1-2.615,2.616,2.619,2.619,0,0,1-2.616-2.616v-4.417l-2.358,1.417a2.327,2.327,0,0,0-1.129,1.991v1.718L-3014-182.1a18.368,18.368,0,0,1-1-6.047v-8.885l13.328-5.971,13.328,5.971v8.885a18.48,18.48,0,0,1-3.818,11.28,16.649,16.649,0,0,1-9.51,6.491Zm-2.022-20.652a2.341,2.341,0,0,0-1.231.352l-1.218.76a1.163,1.163,0,0,0-.545.985v4.588a1.455,1.455,0,0,0,1.454,1.453,1.455,1.455,0,0,0,1.453-1.453v-3.2h6.685a2.036,2.036,0,0,1,2.034,2.034v1.036l2.907-1.678a1.168,1.168,0,0,0,.425-1.588l-2.906-5.036a1.165,1.165,0,0,0-1.007-.581,1.164,1.164,0,0,0-.581.156l-3.757,2.169Z" transform="translate(3024 209)"/></g></g></g></svg>