<svg xmlns="http://www.w3.org/2000/svg" width="92.172" height="92.172" viewBox="0 0 92.172 92.172"><defs><style>.a{fill:#4a6fc3;}</style></defs><path class="a" d="M46.086.563A46.086,46.086,0,1,0,92.172,46.648,46.078,46.078,0,0,0,46.086.563Zm0,17.84A16.353,16.353,0,1,1,29.733,34.755,16.353,16.353,0,0,1,46.086,18.4Zm0,63.926A35.61,35.61,0,0,1,18.862,69.654a20.719,20.719,0,0,1,18.3-11.113,4.547,4.547,0,0,1,1.319.2,24.6,24.6,0,0,0,7.6,1.282,24.511,24.511,0,0,0,7.6-1.282,4.547,4.547,0,0,1,1.319-.2,20.719,20.719,0,0,1,18.3,11.113A35.61,35.61,0,0,1,46.086,82.328Z" transform="translate(0 -0.563)"/></svg>